<svg width="180" height="180" viewBox="0 0 180 180" fill="none" xmlns="http://www.w3.org/2000/svg">
  <rect width="180" height="180" rx="37" fill="#16a34a"/>
  <path d="M90 35C90 35 55 65 55 100C55 119.33 70.67 135 90 135C109.33 135 125 119.33 125 100C125 65 90 35 90 35Z" fill="white" opacity="0.95"/>
  <path d="M90 55C90 55 75 80 75 95C75 103.28 81.72 110 90 110C98.28 110 105 103.28 105 95C105 80 90 55 90 55Z" fill="#16a34a"/>
  <path d="M88 75L90 65L92 75L90 110" stroke="#16a34a" stroke-width="2" fill="none"/>
</svg>
  <defs>
    <clipPath id="clip0_7960_43945">
      <rect width="180" height="180" fill="white" />
    </clipPath>
  </defs>
</svg>