<svg width="1200" height="630" viewBox="0 0 1200 630" fill="none" xmlns="http://www.w3.org/2000/svg">
  <!-- Background -->
  <rect width="1200" height="630" fill="#f0fdf4"/>
  <rect width="1200" height="8" fill="#16a34a"/>
  
  <!-- Left green accent -->
  <rect x="0" y="8" width="400" height="622" fill="#16a34a" opacity="0.08"/>
  
  <!-- Leaf icon -->
  <g transform="translate(130, 180)">
    <path d="M70 0C70 0 25 45 25 75C25 99.85 45.15 120 70 120C94.85 120 115 99.85 115 75C115 45 70 0 70 0Z" fill="#16a34a" opacity="0.9"/>
    <path d="M70 30C70 30 50 55 50 70C50 81.05 58.95 90 70 90C81.05 90 90 81.05 90 70C90 55 70 30 70 30Z" fill="#f0fdf4"/>
  </g>
  
  <!-- Title -->
  <text x="440" y="250" font-family="system-ui, -apple-system, sans-serif" font-size="72" font-weight="700" fill="#15803d">AgroShop</text>
  <text x="440" y="310" font-family="system-ui, -apple-system, sans-serif" font-size="36" font-weight="400" fill="#166534">SENA - Centro Agropecuario</text>
  
  <!-- Divider -->
  <rect x="440" y="340" width="120" height="4" rx="2" fill="#16a34a"/>
  
  <!-- Description -->
  <text x="440" y="400" font-family="system-ui, -apple-system, sans-serif" font-size="28" fill="#374151">Sistema de gestión de ventas,</text>
  <text x="440" y="440" font-family="system-ui, -apple-system, sans-serif" font-size="28" fill="#374151">inventario y producción</text>
  
  <!-- Footer bar -->
  <rect x="0" y="560" width="1200" height="70" fill="#16a34a"/>
  <text x="600" y="602" font-family="system-ui, -apple-system, sans-serif" font-size="22" fill="white" text-anchor="middle">🌱 Productos agropecuarios frescos y de calidad</text>
</svg>
